<svg width="387" height="102" viewBox="0 0 387 102" fill="none" xmlns="http://www.w3.org/2000/svg">
<path d="M117.959 71.4105C115.985 69.4585 115 66.8885 115 63.6971V39.6444C115 36.4546 115.986 33.883 117.959 31.931C119.932 29.9791 122.513 29.0039 125.703 29.0039C128.893 29.0039 131.474 29.9791 133.448 31.931C135.421 33.883 136.407 36.4546 136.407 39.6444V63.6971C136.407 66.8869 135.421 69.4585 133.448 71.4105C131.476 73.3624 128.893 74.3376 125.703 74.3376C122.513 74.3376 119.93 73.3624 117.959 71.4105ZM128.664 66.9093C129.376 66.1535 129.733 65.0838 129.733 63.6987V39.646C129.733 38.2609 129.376 37.1912 128.664 36.4354C127.95 35.6796 126.963 35.3017 125.705 35.3017C124.446 35.3017 123.458 35.6796 122.745 36.4354C122.031 37.1912 121.676 38.2609 121.676 39.646V63.6987C121.676 65.0838 122.031 66.1535 122.745 66.9093C123.458 67.6651 124.446 68.043 125.705 68.043C126.963 68.043 127.95 67.6651 128.664 66.9093Z" fill="black"/>
<path d="M146.799 72.9534C145.163 72.031 143.891 70.75 142.99 69.1119C142.087 67.4754 141.637 65.6083 141.637 63.5075V61.9334L148.059 61.2401V62.8766C148.059 64.473 148.437 65.7316 149.193 66.654C149.949 67.5779 150.998 68.0391 152.341 68.0391C153.685 68.0391 154.681 67.6612 155.457 66.9054C156.234 66.1496 156.621 65.1215 156.621 63.8197C156.621 62.393 156.212 61.0287 155.393 59.7268C154.575 58.4266 152.948 56.6204 150.514 54.3113C147.24 51.2049 145.004 48.6236 143.808 46.566C142.612 44.5099 142.013 42.2634 142.013 39.8294C142.013 36.5132 142.915 33.8791 144.721 31.9271C146.525 29.9752 149.003 29 152.151 29C155.299 29 157.774 29.9864 159.581 31.9592C161.385 33.9335 162.288 36.5772 162.288 39.8919V41.0256L155.866 41.7189V40.4603C155.866 38.7822 155.55 37.5012 154.921 36.6189C154.292 35.7366 153.388 35.2962 152.213 35.2962C151.038 35.2962 150.135 35.6533 149.505 36.3659C148.876 37.08 148.561 38.1289 148.561 39.514C148.561 40.8991 148.98 42.2329 149.819 43.5124C150.658 44.7934 152.274 46.6284 154.668 49.0223C157.942 52.2969 160.178 54.931 161.374 56.9246C162.57 58.9182 163.169 61.112 163.169 63.5043C163.169 65.6035 162.717 67.4706 161.816 69.1087C160.913 70.7452 159.643 72.0262 158.007 72.9502C156.37 73.8725 154.501 74.3353 152.402 74.3353C150.303 74.3353 148.436 73.8725 146.798 72.9502L146.799 72.9534Z" fill="black"/>
<path d="M172.483 72.9534C170.846 72.031 169.575 70.75 168.673 69.1119C167.77 67.4754 167.32 65.6083 167.32 63.5075V61.9334L173.743 61.2401V62.8766C173.743 64.473 174.121 65.7316 174.877 66.654C175.633 67.5779 176.681 68.0391 178.025 68.0391C179.368 68.0391 180.364 67.6612 181.141 66.9054C181.918 66.1496 182.305 65.1215 182.305 63.8197C182.305 62.393 181.895 61.0287 181.077 59.7268C180.259 58.4266 178.632 56.6204 176.198 54.3113C172.923 51.2049 170.688 48.6236 169.492 46.566C168.295 44.5099 167.697 42.2634 167.697 39.8294C167.697 36.5132 168.598 33.8791 170.404 31.9271C172.209 29.9752 174.686 29 177.834 29C180.982 29 183.458 29.9864 185.264 31.9592C187.069 33.9335 187.972 36.5772 187.972 39.8919V41.0256L181.549 41.7189V40.4603C181.549 38.7822 181.234 37.5012 180.604 36.6189C179.975 35.7366 179.072 35.2962 177.897 35.2962C176.721 35.2962 175.818 35.6533 175.189 36.3659C174.56 37.08 174.244 38.1289 174.244 39.514C174.244 40.8991 174.664 42.2329 175.503 43.5124C176.342 44.7934 177.958 46.6284 180.351 49.0223C183.626 52.2969 185.861 54.931 187.058 56.9246C188.254 58.9182 188.853 61.112 188.853 63.5043C188.853 65.6035 188.401 67.4706 187.5 69.1087C186.596 70.7452 185.327 72.0262 183.69 72.9502C182.054 73.8725 180.185 74.3353 178.086 74.3353C175.986 74.3353 174.119 73.8725 172.481 72.9502L172.483 72.9534Z" fill="black"/>
<path d="M209.506 73.7079L204.657 55.511H201.194V73.7079H194.52V29.6328H204.971C208.161 29.6328 210.7 30.5888 212.59 32.4975C214.479 34.4078 215.423 36.9587 215.423 40.1468V44.9954C215.423 47.0098 215.024 48.7953 214.226 50.3469C213.429 51.9001 212.295 53.1171 210.827 53.9994L216.431 73.7079H209.506ZM201.195 49.2148H204.659C205.959 49.2148 206.966 48.8593 207.68 48.1452C208.393 47.431 208.75 46.4238 208.75 45.1235V40.0235C208.75 38.7233 208.393 37.7161 207.68 37.0019C206.966 36.2893 205.959 35.9322 204.659 35.9322H201.195V49.218V49.2148Z" fill="black"/>
<path d="M235.07 63.9481H227.891L226.444 73.7079H219.77L227.073 29.6328H236.014L243.318 73.7079H236.517L235.07 63.9481ZM234.189 57.5254L231.481 39.0771L228.774 57.5254H234.189Z" fill="black"/>
<path d="M248.48 29.6328H255.848L264.347 59.226V29.6328H270.895V73.7079H263.843L255.028 45.4998V73.7079H248.48V29.6328Z" fill="black"/>
<path d="M287.392 55.5735L284.873 60.4221V73.7079H278.199V29.6328H284.873V47.5143L293.688 29.6328H300.867L291.485 48.3325L301.559 73.7063H294.38L287.391 55.5719L287.392 55.5735Z" fill="black"/>
<path d="M306.535 29.6328H325.488V35.929H313.209V48.2076H322.969V54.5038H313.209V67.4117H325.488V73.7079H306.535V29.6328Z" fill="black"/>
<path d="M346.072 73.7079L341.224 55.511H337.76V73.7079H331.086V29.6328H341.537C344.727 29.6328 347.267 30.5888 349.156 32.4975C351.046 34.4078 351.989 36.9587 351.989 40.1468V44.9954C351.989 47.0098 351.59 48.7953 350.793 50.3469C349.995 51.9001 348.862 53.1171 347.393 53.9994L352.998 73.7079H346.072ZM337.762 49.2148H341.225C342.525 49.2148 343.533 48.8593 344.247 48.1452C344.959 47.431 345.316 46.4238 345.316 45.1235V40.0235C345.316 38.7233 344.959 37.7161 344.247 37.0019C343.533 36.2893 342.525 35.9322 341.225 35.9322H337.762V49.218V49.2148Z" fill="black"/>
<path fill-rule="evenodd" clip-rule="evenodd" d="M93.0669 21.2194C81.7011 16.5628 69.255 14 56.2078 14C43.1607 14 30.7192 16.5639 19.35 21.2194C10.563 49.4616 27.2003 87.6664 56.2078 94.9961C85.2211 87.6664 101.857 49.4616 93.0657 21.2194H93.0669ZM64.3995 55.8099C66.9381 53.5517 68.5402 50.258 68.5402 46.5874C68.5402 39.7782 63.0227 34.2562 56.209 34.2562C49.3952 34.2562 43.8778 39.7782 43.8778 46.5874C43.8778 50.2568 45.4798 53.5517 48.0231 55.8099L45.9602 74.7353C49.2298 75.6259 52.6636 76.0971 56.209 76.0971C59.7543 76.0971 63.1928 75.6271 66.4578 74.7353L64.3995 55.8099Z" fill="url(#paint0_linear_691_5993)"/>
<path fill-rule="evenodd" clip-rule="evenodd" d="M56.2079 14C43.1654 14 30.7193 16.5639 19.35 21.2194C14.0877 38.1314 17.9434 58.6186 28.1163 73.909C26.774 48.8157 49.1792 35.8893 50.8606 35.479C52.4775 34.6975 54.2898 34.2574 56.2079 34.2574C58.126 34.2574 59.9429 34.6975 61.5598 35.479C63.2365 35.8893 85.6418 48.8169 84.3053 73.909C94.4736 58.6186 98.3292 38.1325 93.0669 21.2194C81.7011 16.5628 69.255 14 56.2079 14Z" fill="url(#paint1_linear_691_5993)"/>
<path fill-rule="evenodd" clip-rule="evenodd" d="M56.2099 76.0962C52.6657 76.0962 49.2307 75.6262 45.9611 74.7344C45.9611 74.7344 44.4741 87.9723 47.5482 91.7371C50.2914 93.1288 53.1852 94.2309 56.2099 94.9963C59.2393 94.2298 62.133 93.1288 64.8762 91.7371C67.9504 87.9723 66.4587 74.7344 66.4587 74.7344C63.1949 75.625 59.7599 76.0962 56.2099 76.0962Z" fill="#00804E"/>
<path fill-rule="evenodd" clip-rule="evenodd" d="M17.8789 47.7791C26.4303 16.7535 85.9934 16.7535 94.539 47.7791C96.041 38.7577 95.6606 29.5547 93.0668 21.2194C81.7022 16.5628 69.2561 14 56.2089 14C43.1618 14 30.7203 16.5639 19.3511 21.2194C16.7573 29.5547 16.3769 38.7577 17.8789 47.7791Z" fill="#69FA71"/>
<path fill-rule="evenodd" clip-rule="evenodd" d="M61.5598 34.0497C59.9428 33.2683 58.1247 32.8281 56.2078 32.8281C54.2909 32.8281 52.4775 33.2683 50.8605 34.0497C49.2137 34.4508 27.6301 46.8969 28.0611 71.0432C28.4817 47.8324 49.2435 35.877 50.8605 35.4817C52.4775 34.7002 54.2898 34.2601 56.2078 34.2601C58.1259 34.2601 59.9428 34.7002 61.5598 35.4817C63.1721 35.877 83.934 47.8324 84.3546 71.0432C84.7902 46.8969 63.2066 34.4497 61.5598 34.0497Z" fill="#69FA71"/>
<defs>
<linearGradient id="paint0_linear_691_5993" x1="56.2979" y1="44.3891" x2="56.2979" y2="108.002" gradientUnits="userSpaceOnUse">
<stop stop-color="#00804E"/>
<stop offset="1" stop-color="#20C94B"/>
</linearGradient>
<linearGradient id="paint1_linear_691_5993" x1="56.2969" y1="76.5636" x2="56.2969" y2="-5.95759" gradientUnits="userSpaceOnUse">
<stop stop-color="#00B04F"/>
<stop offset="1" stop-color="#49F54C"/>
</linearGradient>
</defs>
</svg>
