<svg width="79" height="81" viewBox="0 0 79 81" fill="none" xmlns="http://www.w3.org/2000/svg">
<path fill-rule="evenodd" clip-rule="evenodd" d="M76.0669 7.21942C64.7011 2.56277 52.255 0 39.2078 0C26.1607 0 13.7192 2.56392 2.34996 7.21942C-6.437 35.4616 10.2003 73.6664 39.2078 80.9961C68.2211 73.6664 84.8573 35.4616 76.0657 7.21942H76.0669ZM47.3995 41.8099C49.9381 39.5517 51.5402 36.258 51.5402 32.5874C51.5402 25.7782 46.0227 20.2562 39.209 20.2562C32.3952 20.2562 26.8778 25.7782 26.8778 32.5874C26.8778 36.2568 28.4798 39.5517 31.0231 41.8099L28.9602 60.7353C32.2298 61.6259 35.6636 62.0971 39.209 62.0971C42.7543 62.0971 46.1928 61.6271 49.4578 60.7353L47.3995 41.8099Z" fill="url(#paint0_linear_691_5983)"/>
<path fill-rule="evenodd" clip-rule="evenodd" d="M39.2079 0C26.1654 0 13.7193 2.56392 2.35001 7.21942C-2.91228 24.1314 0.943361 44.6186 11.1163 59.909C9.77399 34.8157 32.1792 21.8893 33.8606 21.479C35.4775 20.6975 37.2898 20.2574 39.2079 20.2574C41.126 20.2574 42.9429 20.6975 44.5598 21.479C46.2365 21.8893 68.6418 34.8169 67.3053 59.909C77.4736 44.6186 81.3292 24.1325 76.0669 7.21942C64.7011 2.56277 52.255 0 39.2079 0Z" fill="url(#paint1_linear_691_5983)"/>
<path fill-rule="evenodd" clip-rule="evenodd" d="M39.2099 62.0962C35.6657 62.0962 32.2307 61.6262 28.9611 60.7344C28.9611 60.7344 27.4741 73.9723 30.5482 77.7371C33.2914 79.1288 36.1852 80.2309 39.2099 80.9963C42.2393 80.2298 45.133 79.1288 47.8762 77.7371C50.9504 73.9723 49.4587 60.7344 49.4587 60.7344C46.1949 61.625 42.7599 62.0962 39.2099 62.0962Z" fill="#00804E"/>
<path fill-rule="evenodd" clip-rule="evenodd" d="M0.878898 33.7791C9.43027 2.75354 68.9934 2.75354 77.539 33.7791C79.041 24.7577 78.6606 15.5547 76.0668 7.21942C64.7022 2.56277 52.2561 0 39.2089 0C26.1618 0 13.7203 2.56392 2.35105 7.21942C-0.242743 15.5547 -0.623136 24.7577 0.878898 33.7791Z" fill="#69FA71"/>
<path fill-rule="evenodd" clip-rule="evenodd" d="M44.5598 20.0497C42.9428 19.2683 41.1247 18.8281 39.2078 18.8281C37.2909 18.8281 35.4775 19.2683 33.8605 20.0497C32.2137 20.4508 10.6301 32.8969 11.0611 57.0432C11.4817 33.8324 32.2435 21.877 33.8605 21.4817C35.4775 20.7002 37.2898 20.2601 39.2078 20.2601C41.1259 20.2601 42.9428 20.7002 44.5598 21.4817C46.1721 21.877 66.934 33.8324 67.3546 57.0432C67.7902 32.8969 46.2066 20.4497 44.5598 20.0497Z" fill="#69FA71"/>
<defs>
<linearGradient id="paint0_linear_691_5983" x1="39.2979" y1="30.3891" x2="39.2979" y2="94.0017" gradientUnits="userSpaceOnUse">
<stop stop-color="#00804E"/>
<stop offset="1" stop-color="#20C94B"/>
</linearGradient>
<linearGradient id="paint1_linear_691_5983" x1="39.2969" y1="62.5636" x2="39.2969" y2="-19.9576" gradientUnits="userSpaceOnUse">
<stop stop-color="#00B04F"/>
<stop offset="1" stop-color="#49F54C"/>
</linearGradient>
</defs>
</svg>
